<svg width="414" height="108" viewBox="0 0 414 108" fill="none" xmlns="http://www.w3.org/2000/svg">
<path fill-rule="evenodd" clip-rule="evenodd" d="M427 81L400.591 72C374.576 63 321.757 45 269.333 49.5C216.909 54 164.091 81 111.667 94.5C59.2425 108 6.42416 108 -19.5909 108H-46V0H-19.5909C6.42416 0 59.2425 0 111.667 0C164.091 0 216.909 0 269.333 0C321.757 0 374.576 0 400.591 0H427V81Z" fill="#40A8C4" fill-opacity="0.61"/>
<path fill-rule="evenodd" clip-rule="evenodd" d="M427 64.5L400.591 57.3333C374.576 50.1667 321.757 35.8333 269.333 39.4167C216.909 43 164.091 64.5 111.667 75.25C59.2425 86 6.42416 86 -19.5909 86H-46V0H-19.5909C6.42416 0 59.2425 0 111.667 0C164.091 0 216.909 0 269.333 0C321.757 0 374.576 0 400.591 0H427V64.5Z" fill="#07689F" fill-opacity="0.48"/>
</svg>
