<svg width="1049" height="90" viewBox="0 0 1049 90" fill="none" xmlns="http://www.w3.org/2000/svg">
<path fill-rule="evenodd" clip-rule="evenodd" d="M1049 67.5L990.431 60C932.736 52.5 815.597 37.5 699.333 41.25C583.069 45 465.931 67.5 349.667 78.75C233.402 90 116.264 90 58.5692 90H-9.53674e-07V0H58.5692C116.264 0 233.402 0 349.667 0C465.931 0 583.069 0 699.333 0C815.597 0 932.736 0 990.431 0H1049V67.5Z" fill="#40A8C4" fill-opacity="0.61"/>
<path fill-rule="evenodd" clip-rule="evenodd" d="M1049 53.75L990.431 47.7778C932.736 41.8055 815.597 29.8611 699.333 32.8472C583.069 35.8333 465.931 53.75 349.667 62.7083C233.402 71.6667 116.264 71.6667 58.5692 71.6667H-9.53674e-07V-7.15256e-06H58.5692C116.264 -7.15256e-06 233.402 -7.15256e-06 349.667 -7.15256e-06C465.931 -7.15256e-06 583.069 -7.15256e-06 699.333 -7.15256e-06C815.597 -7.15256e-06 932.736 -7.15256e-06 990.431 -7.15256e-06H1049V53.75Z" fill="#07689F" fill-opacity="0.48"/>
</svg>
